<?xml version="1.0" encoding="UTF-8"?>
<svg id="Ebene_1" data-name="Ebene 1" xmlns="http://www.w3.org/2000/svg" viewBox="0 0 238.97 43.45">
  <defs>
    <style>
      .cls-1, .cls-2 {
        font-family: CalistoMT, 'Calisto MT';
        font-size: 41px;
        isolation: isolate;
      }

      .cls-1, .cls-3 {
        fill: #7f7f7f;
      }

      .cls-2, .cls-4 {
        fill: #e5e5e5;
      }
    </style>
  </defs>
  <text class="cls-2" transform="translate(32.26 34.6)"><tspan x="0" y="0">ami</tspan></text>
  <text class="cls-1" transform="translate(135.29 34.6)"><tspan x="0" y="0">uteish</tspan></text>
  <path class="cls-4" d="m3.02,36.24c.68-.34,1.16-.85,1.43-1.54.27-.68.4-1.67.4-2.97V9.86c0-1.3-.13-2.29-.4-2.97-.27-.68-.75-1.2-1.43-1.54-.68-.34-1.69-.58-3.02-.73v-1.73h10.21v28.84c0,1.3.12,2.29.35,2.97.23.68.67,1.2,1.3,1.54s1.56.59,2.78.73v1.73H0v-1.73c1.33-.14,2.34-.39,3.02-.73Zm12.37-16.6c3.02,0,5.23-.67,6.61-2,1.39-1.33,2.08-3.13,2.08-5.4s-.68-4-2.05-5.18c-1.37-1.19-3.69-1.78-6.97-1.78-2.66,0-5.9.25-9.72.76v-3.13h11.66c4.5,0,7.75.8,9.75,2.4,2,1.6,3,3.81,3,6.61s-1.02,5.03-3.05,6.78c-2.03,1.75-5.25,2.67-9.64,2.78l-.59.22H6.91v-2.81c3.71.5,6.53.76,8.48.76h0Zm-3.08.97l6.26-.22,10.53,13.39c.76.97,1.51,1.69,2.27,2.16.76.47,65.54.81,66.73,1.03v1.73H25.92s-13.61-18.09-13.61-18.09Z"/>
  <path class="cls-3" d="m107.77,36.3c.68-.34,1.16-.85,1.43-1.54.27-.68.4-1.67.4-2.97V9.92c0-1.3-.13-2.29-.4-2.97-.27-.68-.75-1.2-1.43-1.54s-1.69-.58-3.02-.73v-1.73h14.15v1.73c-1.08.14-1.9.39-2.46.73s-.94.86-1.16,1.54-.32,1.67-.32,2.97v21.87c0,1.3.12,2.29.35,2.97.23.68.67,1.2,1.3,1.54.63.34,1.56.59,2.78.73v1.73h-14.63v-1.73c1.33-.14,2.34-.39,3.02-.73h-.01Zm6.64-15.15l13.07-12.91c.43-.43.73-.8.89-1.11s.24-.62.24-.94c0-.4-.17-.74-.51-1.03s-1.07-.59-2.19-.92v-1.3h13.23v1.3c-2.3.94-4.35,1.94-6.13,3-1.78,1.06-3.54,2.46-5.27,4.18l-10.53,10.42-.16.16h-3.4l.76-.86h0Zm2.27.7l3.83-3.94,13.88,15.5c1.15,1.33,2.14,2.21,2.97,2.65.83.43,100.04.76,101.41.97v1.73h-107.19l-14.9-16.9h0Z"/>
</svg>