<?xml version="1.0" standalone="no"?>
<!DOCTYPE svg PUBLIC "-//W3C//DTD SVG 20010904//EN"
 "http://www.w3.org/TR/2001/REC-SVG-20010904/DTD/svg10.dtd">
<svg version="1.0" xmlns="http://www.w3.org/2000/svg"
 width="993.000000pt" height="741.000000pt" viewBox="0 0 993.000000 741.000000"
 preserveAspectRatio="xMidYMid meet">

<g transform="translate(0.000000,741.000000) scale(0.100000,-0.100000)"
fill="#000000" stroke="none">
<path d="M2933 5503 l-493 -3 0 -2498 0 -2499 338 -6 c185 -4 436 -7 558 -7
l221 0 6 242 c4 133 7 420 7 638 0 218 3 688 7 1043 l6 647 246 0 c135 0 410
5 611 10 414 11 454 17 601 91 254 127 425 375 444 644 4 50 2 149 -3 221 -9
110 -16 144 -41 206 -49 118 -124 229 -197 297 -72 66 -237 154 -347 185 -94
27 -326 35 -983 36 l-622 0 -7 -1990 -7 -1990 -269 0 -269 0 0 2231 0 2232
1128 -5 1127 -5 145 -48 c139 -46 278 -107 364 -163 59 -38 174 -133 223 -184
57 -60 145 -192 192 -290 92 -192 114 -309 114 -628 1 -198 0 -209 -30 -320
-99 -371 -307 -637 -643 -823 -122 -67 -336 -128 -555 -157 -113 -15 -125 -18
-125 -36 0 -8 254 -393 564 -857 310 -463 575 -866 590 -895 l26 -52 -304 0
-304 0 -76 117 c-42 65 -312 473 -599 906 l-522 788 -147 -3 c-80 -2 -150 -7
-155 -11 -13 -14 -16 -10 772 -1204 225 -342 445 -676 488 -743 l78 -120 622
1 c342 1 634 4 650 8 l28 6 -38 60 c-20 33 -258 384 -527 780 -594 874 -686
1012 -686 1024 0 5 26 17 58 26 131 36 328 124 421 188 76 52 266 223 329 296
263 305 372 618 372 1071 0 312 -52 532 -186 777 -94 173 -264 360 -439 481
-178 124 -426 226 -625 257 -115 18 -861 35 -1375 32 -148 -1 -492 -3 -762 -4z
m1772 -1043 c112 -8 138 -14 190 -39 77 -38 187 -130 222 -184 57 -89 75 -160
80 -312 5 -124 3 -147 -16 -203 -49 -145 -145 -253 -287 -323 -76 -39 -87 -41
-210 -49 -71 -5 -348 -9 -617 -10 l-487 0 2 562 3 562 25 8 c33 10 928 0 1095
-12z"/>
<path d="M6730 3462 c-30 -37 -185 -222 -345 -412 -491 -584 -706 -843 -736
-887 l-29 -41 36 -53 c19 -29 290 -394 602 -811 l567 -759 557 3 c306 2 560 6
564 10 9 10 -49 89 -465 638 -364 480 -647 858 -694 927 l-29 42 28 38 c58 78
266 333 390 479 71 83 185 218 254 299 69 82 208 246 309 365 182 213 183 215
155 221 -16 4 -272 7 -569 8 l-540 1 -55 -68z m600 -213 c0 -16 -70 -101 -345
-424 -458 -537 -565 -670 -565 -705 0 -10 17 -40 38 -67 85 -107 861 -1142
901 -1201 23 -34 39 -67 36 -72 -4 -6 -90 -10 -218 -10 l-212 1 -412 552
c-399 534 -530 712 -566 769 l-17 27 68 89 c37 49 247 305 467 570 l400 481
213 1 c152 0 212 -3 212 -11z"/>
</g>
</svg>
