<?xml version="1.0" encoding="UTF-8"?>
<svg id="Ebene_1" data-name="Ebene 1" xmlns="http://www.w3.org/2000/svg" viewBox="0 0 100.03 100.11">
  <defs>
    <style>
      .cls-1 {
        fill: none;
        stroke-miterlimit: 6;
        stroke-width: 2.12px;
      }

      .cls-1, .cls-2 {
        stroke: #12120d;
      }

      .cls-2 {
        fill: #fff;
        stroke-miterlimit: 10;
        stroke-width: 2.76px;
      }

      .cls-3 {
        fill: #12120d;
      }
    </style>
  </defs>
  <g>
    <ellipse class="cls-2" cx="50.01" cy="50.06" rx="33.78" ry="33.74"/>
    <g>
      <path class="cls-3" d="m22.57,50.08c0-8.5,4.44-13.43,10.1-13.43,2.68,0,4.88,1.55,6.31,3.26l-2.63,3.59c-1.01-1.13-2.15-1.84-3.67-1.84-3,0-5.19,3.09-5.19,8.23s2.19,8.33,5.38,8.33c1.52,0,2.78-.91,3.81-2.26l2.63,3.51c-1.72,2.47-4.09,3.76-6.94,3.76-5.26,0-9.79-4.5-9.79-13.15Z"/>
      <path class="cls-3" d="m42.15,37.12h5.02l2.07,9.08.71,3.54h.13l.7-3.54,2.08-9.08h5.02v25.63h-4.05v-7.94c0-2.89.42-9.14.64-11.91h-.1l-1.62,6.88-1.64,6.18h-2.32l-1.67-6.18-1.51-6.88h-.11c.24,2.77.64,9.02.64,11.91v7.94h-3.98v-25.63Z"/>
      <path class="cls-3" d="m61.38,59.52l2.75-3.98c1.6,1.59,3.57,2.68,5.62,2.68s2.97-.95,2.97-2.21c0-1.85-1.26-2.29-3.26-3.31l-2.75-1.42c-2.34-1.08-4.48-3.26-4.48-6.99,0-4.25,3.15-7.64,7.75-7.64,2.54,0,5.11,1.16,7.02,3.36l-2.41,3.66c-1.49-1.3-2.81-2-4.87-2-1.58,0-2.65.79-2.65,2.29s1.42,2.11,3.44,3.03l2.59,1.33c2.77,1.26,4.52,3.35,4.52,6.97,0,4.26-2.95,7.95-8.18,7.95-2.86,0-5.81-1.27-8.05-3.7Z"/>
    </g>
  </g>
  <path class="cls-1" d="m29.1,15.02l10.43-4.45c1.05-.45,1.83-1.36,2.1-2.47l1.05-4.28c.4-1.62,1.85-2.76,3.52-2.76h7.14c1.66,0,3.1,1.12,3.51,2.73l1.04,4.07c.27,1.05,1,1.93,1.98,2.39l10.61,4.92c1.12.52,2.42.43,3.46-.22l3.57-2.25c1.41-.89,3.24-.7,4.45.45l4.96,4.77c1.17,1.12,1.45,2.88.69,4.31l-2.07,3.89c-.51.95-.56,2.07-.15,3.07l4.65,11.36c.43,1.06,1.34,1.85,2.44,2.13l3.77.98c1.63.42,2.75,1.91,2.71,3.6l-.18,7.1c-.04,1.73-1.3,3.18-3,3.47l-3.79.66c-1.2.21-2.22,1.01-2.7,2.13l-4.4,10.13c-.5,1.15-.37,2.48.35,3.51l2.09,2.99c1,1.44.83,3.39-.41,4.63l-5.24,5.24c-1.14,1.14-2.89,1.39-4.3.62l-3.48-1.9c-.92-.5-2.02-.58-3-.21l-10.47,3.91c-1.11.41-1.95,1.35-2.24,2.5l-1.22,5.23c-.25.98-1.11,1.67-2.11,1.71l-7.79.07c-1.68.07-3.18-1.03-3.63-2.64l-1.08-3.87c-.3-1.06-1.06-1.93-2.07-2.36l-11.1-4.71c-1.1-.47-2.36-.36-3.37.28l-3.63,2.31c-1.49.95-3.44.69-4.63-.61l-4.72-5.17c-1.02-1.12-1.24-2.76-.53-4.11l2.04-3.91c.49-.94.54-2.05.15-3.03l-4.28-10.55c-.47-1.15-1.48-1.98-2.7-2.2l-3.3-.61c-1.68-.31-2.92-1.75-2.96-3.47l-.18-6.99c-.04-1.68,1.07-3.16,2.69-3.59l3.67-.97c1.08-.29,1.96-1.05,2.4-2.08l4.88-11.42c.46-1.09.37-2.33-.26-3.33l-2.17-3.48c-.88-1.41-.68-3.23.46-4.42l4.52-4.7c1.09-1.13,2.79-1.43,4.21-.74l4.61,2.26c.95.46,2.05.49,3.02.08Z"/>
</svg>