<?xml version="1.0" encoding="UTF-8"?>
<svg id="Ebene_1" data-name="Ebene 1" xmlns="http://www.w3.org/2000/svg" viewBox="0 0 98.61 98.45">
  <defs>
    <style>
      .cls-1, .cls-2, .cls-3, .cls-4, .cls-5, .cls-6, .cls-7, .cls-8, .cls-9, .cls-10, .cls-11, .cls-12 {
        stroke-miterlimit: 6;
      }

      .cls-1, .cls-2, .cls-3, .cls-4, .cls-6, .cls-7, .cls-8, .cls-9, .cls-10, .cls-11, .cls-12 {
        stroke: #12120d;
      }

      .cls-1, .cls-3, .cls-4, .cls-6, .cls-7, .cls-8, .cls-11, .cls-12 {
        stroke-width: 1.68px;
      }

      .cls-1, .cls-10 {
        fill: #5193cb;
      }

      .cls-2, .cls-9, .cls-11 {
        fill: #fff;
      }

      .cls-2, .cls-10 {
        stroke-width: 2.72px;
      }

      .cls-13 {
        fill: #89d0df;
      }

      .cls-3 {
        fill: #f5c84b;
      }

      .cls-14 {
        fill: #ec647b;
      }

      .cls-4 {
        fill: #77cbec;
      }

      .cls-5, .cls-15 {
        fill: none;
        stroke: #9ad7f1;
        stroke-width: 2.09px;
      }

      .cls-6 {
        fill: #c0d8ef;
      }

      .cls-7 {
        fill: #ed6d7c;
      }

      .cls-16 {
        fill: #fcc94d;
      }

      .cls-17 {
        fill: #94c456;
      }

      .cls-15 {
        stroke-miterlimit: 10;
      }

      .cls-8 {
        fill: #eceded;
      }

      .cls-9 {
        stroke-width: 2.51px;
      }

      .cls-18 {
        fill: #12120d;
      }

      .cls-12 {
        fill: #eb5f77;
      }

      .cls-19 {
        fill: #fad73f;
      }
    </style>
  </defs>
  <path class="cls-9" d="m74.94,77.4H13.07c-6.53,0-11.82-5.63-11.82-12.57V22.24c0-6.94,5.29-12.57,11.82-12.57h61.87c6.53,0,11.82,5.63,11.82,12.57v42.6c0,6.94-5.29,12.57-11.82,12.57Z"/>
  <path class="cls-10" d="m86.69,64.7H1.5V19.33c0-5.2,3.97-9.42,8.86-9.42h67.48c4.89,0,8.86,4.22,8.86,9.42v45.36Z"/>
  <path class="cls-10" d="m80.01,64.3H7.53V23.44c0-3.01,2.3-5.46,5.13-5.46h61.32c3.32,0,6.02,2.87,6.02,6.4v39.92Z"/>
  <path class="cls-2" d="m77.79,64.22H9.8c-1.24,0-2.24-1.07-2.24-2.38V25.94c0-1.31,1-2.38,2.24-2.38h68c1.24,0,2.24,1.07,2.24,2.38v35.9c0,1.31-1,2.38-2.24,2.38Z"/>
  <path class="cls-18" d="m17.1,30.74h-3.07c-.54,0-.98-.47-.98-1.04h0c0-.58.44-1.04.98-1.04h3.07c.54,0,.98.47.98,1.04h0c0,.58-.44,1.04-.98,1.04Z"/>
  <path class="cls-18" d="m24.35,30.74h-3.07c-.54,0-.98-.47-.98-1.04h0c0-.58.44-1.04.98-1.04h3.07c.54,0,.98.47.98,1.04h0c0,.58-.44,1.04-.98,1.04Z"/>
  <path class="cls-18" d="m31.88,30.74h-3.07c-.54,0-.98-.47-.98-1.04h0c0-.58.44-1.04.98-1.04h3.07c.54,0,.98.47.98,1.04h0c0,.58-.44,1.04-.98,1.04Z"/>
  <rect class="cls-7" x="9.72" y="18.76" width="5.4" height="4.01"/>
  <path class="cls-4" d="m24.45,59.75h-9.14c-1.25,0-2.27-1.08-2.27-2.41v-14.79c0-1.33,1.01-2.41,2.27-2.41h9.14c1.25,0,2.27,1.08,2.27,2.41v14.79c0,1.33-1.01,2.41-2.27,2.41Z"/>
  <path class="cls-3" d="m43.74,59.75h-9.14c-1.25,0-2.27-1.08-2.27-2.41v-14.79c0-1.33,1.01-2.41,2.27-2.41h9.14c1.25,0,2.27,1.08,2.27,2.41v14.79c0,1.33-1.01,2.41-2.27,2.41Z"/>
  <path class="cls-6" d="m53.24,79.69v9.72c0,1.33-1.01,2.41-2.27,2.41h-13.9c-1.25,0-2.27-1.08-2.27-2.41v-9.72c0-1.33,1.01-2.41,2.27-2.41h13.9c1.25,0,2.27,1.08,2.27,2.41Z"/>
  <path class="cls-8" d="m64.53,94.87h0c0,1.52-1.16,2.75-2.58,2.75H26.1c-1.43,0-2.58-1.23-2.58-2.75h0c0-1.52,1.16-2.75,2.58-2.75h35.84c1.43,0,2.58,1.23,2.58,2.75Z"/>
  <path class="cls-10" d="m79.41,97.07h-32.26c-4.02,0-7.28-3.47-7.28-7.74v-48.86c0-4.28,3.26-7.74,7.28-7.74h32.26c4.02,0,7.28,3.47,7.28,7.74v48.86c0,4.28-3.26,7.74-7.28,7.74Z"/>
  <path class="cls-2" d="m78.6,92.34h-30.83c-1.9,0-3.45-1.64-3.45-3.67v-48.12c0-2.02,1.54-3.67,3.45-3.67h30.83c1.9,0,3.45,1.64,3.45,3.67v48.12c0,2.02-1.54,3.67-3.45,3.67Z"/>
  <path class="cls-18" d="m51.29,44.48h-2.07c-.54,0-.98-.47-.98-1.04h0c0-.58.44-1.04.98-1.04h2.07c.54,0,.98.47.98,1.04h0c0,.58-.44,1.04-.98,1.04Z"/>
  <path class="cls-18" d="m57.1,44.48h-2.07c-.54,0-.98-.47-.98-1.04h0c0-.58.44-1.04.98-1.04h2.07c.54,0,.98.47.98,1.04h0c0,.58-.44,1.04-.98,1.04Z"/>
  <path class="cls-18" d="m63.13,44.48h-2.07c-.54,0-.98-.47-.98-1.04h0c0-.58.44-1.04.98-1.04h2.07c.54,0,.98.47.98,1.04h0c0,.58-.44,1.04-.98,1.04Z"/>
  <path class="cls-4" d="m47.76,59.83v-3.72c0-1.33,1.01-2.41,2.27-2.41h24.47c1.25,0,2.27,1.08,2.27,2.41v3.72c0,1.33-1.01,2.41-2.27,2.41h-24.47c-1.25,0-2.27-1.08-2.27-2.41Z"/>
  <path class="cls-3" d="m47.76,72.2v-3.72c0-1.33,1.01-2.41,2.27-2.41h24.47c1.25,0,2.27,1.08,2.27,2.41v3.72c0,1.33-1.01,2.41-2.27,2.41h-24.47c-1.25,0-2.27-1.08-2.27-2.41Z"/>
  <path class="cls-12" d="m47.76,84.37v-3.72c0-1.33,1.01-2.41,2.27-2.41h24.47c1.25,0,2.27,1.08,2.27,2.41v3.72c0,1.33-1.01,2.41-2.27,2.41h-24.47c-1.25,0-2.27-1.08-2.27-2.41Z"/>
  <path class="cls-10" d="m89.97,97.07h-12.07c-4.02,0-7.28-3.47-7.28-7.74v-31.69c0-4.28,3.26-7.74,7.28-7.74h12.07c4.02,0,7.28,3.47,7.28,7.74v31.69c0,4.28-3.26,7.74-7.28,7.74Z"/>
  <path class="cls-11" d="m90.41,92.45h-12.9c-2.06,0-3.72-1.77-3.72-3.96v-30.65c0-2.19,1.67-3.96,3.72-3.96h12.9c2.06,0,3.72,1.77,3.72,3.96v30.65c0,2.19-1.67,3.96-3.72,3.96Z"/>
  <path class="cls-18" d="m91.33,61.16h-2.36c-.49,0-.89-.42-.89-.95h0c0-.52.4-.95.89-.95h2.36c.49,0,.89.42.89.95h0c0,.52-.4.95-.89.95Z"/>
  <path class="cls-4" d="m76.09,69.13v-1.44c0-1.33,1.01-2.41,2.27-2.41h11.3c1.25,0,2.27,1.08,2.27,2.41v1.44c0,1.33-1.01,2.41-2.27,2.41h-11.3c-1.25,0-2.27-1.08-2.27-2.41Z"/>
  <path class="cls-3" d="m76.09,78.2v-1.44c0-1.33,1.01-2.41,2.27-2.41h11.3c1.25,0,2.27,1.08,2.27,2.41v1.44c0,1.33-1.01,2.41-2.27,2.41h-11.3c-1.25,0-2.27-1.08-2.27-2.41Z"/>
  <path class="cls-12" d="m76.09,87.11v-1.44c0-1.33,1.01-2.41,2.27-2.41h11.3c1.25,0,2.27,1.08,2.27,2.41v1.44c0,1.33-1.01,2.41-2.27,2.41h-11.3c-1.25,0-2.27-1.08-2.27-2.41Z"/>
  <path class="cls-1" d="m86.44,53.02c0,1.45-1.1,2.62-2.46,2.62s-2.46-1.17-2.46-2.62"/>
  <line class="cls-15" x1="14.09" y1="87.78" x2="20.13" y2="87.78"/>
  <line class="cls-5" x1="17.11" y1="84.63" x2="17.11" y2="90.63"/>
  <ellipse class="cls-19" cx="8.42" cy="83.09" rx="1.38" ry="1.47"/>
  <path class="cls-14" d="m44.07,3.54c1.72-1.25,3.99-1.58,5.99-.85-1.72,1.26-3.99,1.57-5.99.85h0Z"/>
  <path class="cls-14" d="m46.67,0c1.22,1.72,1.51,3.98.74,5.95-1.23-1.72-1.5-3.98-.74-5.95h0Z"/>
  <path class="cls-16" d="m91.46,22.51c1.88-1,4.16-1,6.04,0-1.88,1-4.16,1-6.04,0h0Z"/>
  <path class="cls-16" d="m94.48,19.37c1,1.86,1,4.14,0,6-1-1.86-1-4.14,0-6h0Z"/>
  <ellipse class="cls-13" cx="36.15" cy="5.25" rx="1.38" ry="1.47"/>
  <ellipse class="cls-17" cx="91.62" cy="32.55" rx="1.38" ry="1.47"/>
</svg>